<svg width="24" height="21" viewBox="0 0 24 21" fill="none" xmlns="http://www.w3.org/2000/svg">
<path d="M23.3863 6.02891L13.1094 0.306555C12.4087 -0.102185 11.5329 -0.102185 10.8322 0.306555L0.613674 6.02891C0.146543 6.26248 -0.0870226 6.84639 0.0297602 7.31352C0.146543 7.83905 0.613674 8.1894 1.1392 8.24779L2.42381 8.30618V18.1159C2.42381 19.4005 3.47485 20.4516 4.75946 20.4516H19.2405C20.5251 20.4516 21.5762 19.4005 21.5762 18.1159V8.36457L22.8608 8.30618C23.3863 8.24779 23.8535 7.89744 23.9702 7.37192C24.087 6.788 23.8535 6.26248 23.3863 6.02891ZM19.2405 18.0575H14.394V15.0212C14.394 14.0285 13.5766 13.2111 12.5839 13.2111H11.4161C10.4234 13.2111 9.60595 14.0285 9.60595 15.0212V18.0575H4.81786V7.25513C4.81786 7.02157 4.75947 6.788 4.58429 6.55444L12 2.40865L19.4741 6.55444C19.3573 6.72961 19.2405 6.96318 19.2405 7.25513V18.0575Z" fill="#110F24"/>
</svg>
