<svg width="24" height="24" viewBox="0 0 24 24" fill="none" xmlns="http://www.w3.org/2000/svg">
<path d="M19.75 13.3476C19.75 11.2941 18.0816 7.37968 14.7447 1.66845C14.2108 0.641711 13.0763 0 11.875 0C10.6737 0 9.5392 0.705882 8.87182 1.79679C5.66843 7.44385 4 11.2941 4 13.3476C4 16.492 5.93538 19.3155 8.87182 20.5348C9.0053 20.5989 9.13877 20.5989 9.33898 20.5989C10.0064 20.5989 10.5403 20.0856 10.5403 19.4438C10.5403 18.9946 10.2733 18.5455 9.80614 18.3529C7.67055 17.5187 6.33581 15.5294 6.33581 13.2834C6.33581 11.7433 8.00424 7.89305 10.9407 2.82353C11.1409 2.50267 11.4078 2.31016 11.7415 2.24599C11.8083 2.24599 11.8083 2.24599 11.875 2.24599C12.2754 2.24599 12.5424 2.4385 12.7426 2.75936C15.679 7.89305 17.4142 11.7433 17.4142 13.2834C17.4142 15.9144 15.5456 18.0963 13.0095 18.6096V17.3904C13.0763 17.3262 13.2097 17.262 13.2765 17.1979L14.8782 15.5936C15.0784 15.4011 15.2119 15.0802 15.2119 14.7594C15.2119 14.4385 15.0784 14.1818 14.8782 13.9251C14.678 13.7326 14.3443 13.6043 14.0773 13.6043C13.7436 13.6043 13.4767 13.7326 13.2765 13.9251L13.0095 14.1818V10.0107C13.0095 9.36898 12.4756 8.85561 11.875 8.85561C11.2744 8.85561 10.7405 9.36898 10.7405 10.0107V11.4225L10.4068 11.1016C10.2066 10.9091 9.87288 10.7807 9.60593 10.7807C9.27225 10.7807 9.0053 10.9091 8.80508 11.1016C8.60487 11.2941 8.4714 11.615 8.4714 11.9358C8.4714 12.2567 8.60487 12.5134 8.80508 12.7701L10.4068 14.3743C10.5403 14.5027 10.607 14.5668 10.7405 14.631V19.0588V20.7914V24H13.0763V20.984C16.8136 20.4064 19.75 17.1979 19.75 13.3476Z" fill="#110F24"/>
</svg>
