<svg width="22" height="23" viewBox="0 0 22 23" fill="none" xmlns="http://www.w3.org/2000/svg">
<path d="M21.3852 6.88384C20.8256 6.21224 20.042 5.82048 19.2025 5.82048H17.0199C16.9639 2.63041 14.3335 0 11.0874 0C7.84141 0 5.211 2.63041 5.15503 5.82048H2.80445C1.96496 5.82048 1.18144 6.21224 0.621775 6.88384C0.0621137 7.55543 -0.105785 8.39492 0.0621137 9.23441L2.41269 19.9799C2.69252 21.3791 3.97974 22.3865 5.3789 22.3865H16.6281C18.0272 22.3865 19.3145 21.3791 19.5943 19.9799L21.9449 9.23441C22.1128 8.39492 21.8889 7.55543 21.3852 6.88384ZM16.6281 20.1478H5.3789C4.98713 20.1478 4.65134 19.868 4.59537 19.5322L2.24479 8.78668C2.18883 8.56282 2.30076 8.39492 2.35673 8.33895C2.41269 8.28299 2.58059 8.11509 2.80445 8.11509H12.3747C12.9903 8.11509 13.494 7.6114 13.494 6.99577C13.494 6.38014 12.9903 5.87645 12.3747 5.87645H7.39368C7.44964 3.86166 9.07266 2.29461 11.0874 2.29461C13.1022 2.29461 14.7812 3.9736 14.7812 5.98838V6.99577C14.7812 7.6114 15.2849 8.11509 15.9005 8.11509H19.2025C19.4264 8.11509 19.5943 8.22702 19.6503 8.33895C19.7062 8.45089 19.8182 8.56282 19.7622 8.78668L18.5869 14.2154H5.77066C5.15503 14.2154 4.65134 14.7191 4.65134 15.3347C4.65134 15.9504 5.15503 16.454 5.77066 16.454H18.0272L17.3557 19.5322C17.3557 19.868 17.0199 20.1478 16.6281 20.1478Z" fill="#110F24"/>
</svg>
